<svg width="316" height="112" viewBox="0 0 316 112" fill="none" xmlns="http://www.w3.org/2000/svg"><path d="M136 108h-24v4h24v-4z" fill="url(#a)"/><rect x="130" y="11" width="55" height="101" rx="6" fill="url(#b)"/><rect x="151" y="16" width="14" height="2" rx="1" fill="#F1F3F4"/><path fill="#F8F9FA" d="M130 21h55v80h-55z"/><path d="M189 32a4 4 0 0 1 4 4v30a4 4 0 0 1-4 4h-30a4 4 0 0 1-4-4V36a4 4 0 0 1 4-4h30z" fill="url(#c)"/><path fill-rule="evenodd" clip-rule="evenodd" d="M162 39v4h-2v-6h6v2h-4zm-2 26v-6h2v4h4v2h-6zm26 0h2v-6h-2v4h-4v2h4zm2-28v6h-2v-4h-4v-2h6z" fill="#fff"/><path d="M165 50h8v-8h-8v8zm2-6h4v4h-4v-4zm-2 16h8v-8h-8v8zm2-6h4v4h-4v-4zm8-12v8h8v-8h-8zm6 6h-4v-4h4v4zm2 10h-2v2h2v-2zm-6-6h-2v2h2v-2zm2 2h-2v2h2v-2zm-2 2h-2v2h2v-2zm2 2h-2v2h2v-2zm2-2h-2v2h2v-2zm0-4h-2v2h2v-2zm2 2h-2v2h2v-2z" fill="#fff"/><circle cx="268" cy="51" r="17" fill="#fff" stroke="#E8EAED" stroke-width="2"/><path d="M268 41c-5.52 0-10 4.48-10 10s4.48 10 10 10 10-4.48 10-10-4.48-10-10-10zm-4.93 16.28c.43-.9 3.05-1.78 4.93-1.78s4.51.88 4.93 1.78A7.893 7.893 0 0 1 268 59c-1.86 0-3.57-.64-4.93-1.72zm11.29-1.45c-1.43-1.74-4.9-2.33-6.36-2.33s-4.93.59-6.36 2.33A7.95 7.95 0 0 1 260 51c0-4.41 3.59-8 8-8s8 3.59 8 8c0 1.82-.62 3.49-1.64 4.83zM268 45c-1.94 0-3.5 1.56-3.5 3.5s1.56 3.5 3.5 3.5 3.5-1.56 3.5-3.5-1.56-3.5-3.5-3.5zm0 5c-.83 0-1.5-.67-1.5-1.5s.67-1.5 1.5-1.5 1.5.67 1.5 1.5-.67 1.5-1.5 1.5z" fill="#E8EAED"/><circle cx="222" cy="51" r="17" fill="#fff" stroke="#E8EAED" stroke-width="2"/><path d="M228 47h-1v-2c0-2.76-2.24-5-5-5s-5 2.24-5 5v2h-1c-1.1 0-2 .9-2 2v10c0 1.1.9 2 2 2h12c1.1 0 2-.9 2-2V49c0-1.1-.9-2-2-2zm-9-2c0-1.66 1.34-3 3-3s3 1.34 3 3v2h-6v-2zm9 14h-12V49h12v10zm-6-3c1.1 0 2-.9 2-2s-.9-2-2-2-2 .9-2 2 .9 2 2 2z" fill="#E8EAED"/><circle cx="48" cy="50" r="17" fill="#fff" stroke="#E8EAED" stroke-width="2"/><path d="M48 40l-8 4v5.33c0 4.93 3.41 9.55 8 10.67 4.59-1.12 8-5.73 8-10.67V44l-8-4z" fill="#E8EAED" stroke="#E8EAED" stroke-width="2"/><path d="M48 41l-7 3.6v4.797c0 4.437 2.984 8.595 7 9.603V41z" fill="#fff"/><circle cx="94" cy="50" r="17" fill="#fff" stroke="#E8EAED" stroke-width="2"/><path d="M102 42h-3.17L97 40h-6l-1.83 2H86c-1.1 0-2 .9-2 2v12c0 1.1.9 2 2 2h16c1.1 0 2-.9 2-2V44c0-1.1-.9-2-2-2zm0 14H86V44h16v12zm-8-10c-2.21 0-4 1.79-4 4s1.79 4 4 4 4-1.79 4-4-1.79-4-4-4z" fill="#E8EAED"/><defs><linearGradient id="a" x1="112" y1="110" x2="136" y2="110" gradientUnits="userSpaceOnUse"><stop stop-color="#BDC1C6" stop-opacity="0"/><stop offset="1" stop-color="#BDC1C6"/></linearGradient><linearGradient id="b" x1="183" y1="12.5" x2="135.5" y2="111" gradientUnits="userSpaceOnUse"><stop stop-color="#DADCE0"/><stop offset="1" stop-color="#BDC1C6"/></linearGradient><linearGradient id="c" x1="185" y1="40" x2="177.005" y2="75.906" gradientUnits="userSpaceOnUse"><stop stop-color="#34A853"/><stop offset="1" stop-color="#1E8E3E"/></linearGradient></defs></svg>